# xmcd CD database file
#
# Track frame offsets:
#	150
#	16743
#	39497
#	56168
#	75932
#	96016
#	107898
#	127398
#	145022
#	170286
#	194139
#	213516
#	222687
#	248367
#
# Disc length: 3659 seconds
#
# Revision: 0
# Processed by: cddbd v1.5.1PL0 Copyright (c) Steve Scherf et al.
# Submitted via: CDex 1.50
#
DISCID=c80e490e
DTITLE=Joe Miranda - Straight Ahead
DYEAR=2003
DGENRE=Blues
TTITLE0=Little Bit
TTITLE1=Got My Business Straight
TTITLE2=Lessons In Lowdown
TTITLE3=My Country Sugar Mama
TTITLE4=The Real Good Thing
TTITLE5=Victory Run (Wildcat Shuffle)
TTITLE6=The Signifyin' Monkey
TTITLE7=Guitars and Motorcycles
TTITLE8=Never Get Into Nothin'
TTITLE9=Gypsy Woman
TTITLE10=Timberline
TTITLE11=Shameless and Disrespectful (El Atrevido)
TTITLE12=On A Night Like This
TTITLE13=Tribute To Lightnin' and Freddie King
EXTD=YEAR: 2003
EXTT0=
EXTT1=
EXTT2=
EXTT3=
EXTT4=
EXTT5=
EXTT6=
EXTT7=
EXTT8=
EXTT9=
EXTT10=
EXTT11=
EXTT12=
EXTT13=
PLAYORDER=
